# xmcd
#
# Track frame offsets: 
#        150
#        19711
#        36045
#        54008
#        68966
#        86702
#        103069
#        120443
#        137208
#        156797
#        173221
#
# Disc length: 2526 seconds
#
# Revision: 0
# Processed by: cddbd v1.5.2PL0 Copyright (c) Steve Scherf et al.
# Submitted via: ExactAudioCopy v0.95b3
#
DISCID=8909dc0b
DTITLE=Cornbread Red - Bluegrass Tribute to Linkin Park
DYEAR=2005
DGENRE=Black Metal
TTITLE0=Breaking The Habit
TTITLE1=Points Of Authority
TTITLE2=Somewhere I Belong
TTITLE3=One Step Closer
TTITLE4=Easier To Run
TTITLE5=Runaway
TTITLE6=Don't Stay
TTITLE7=Pushing Me Away
TTITLE8=Numb
TTITLE9=Crawling
TTITLE10=In The End
EXTD=
EXTT0=
EXTT1=
EXTT2=
EXTT3=
EXTT4=
EXTT5=
EXTT6=
EXTT7=
EXTT8=
EXTT9=
EXTT10=
PLAYORDER=
